<svg
  xmlns="http://www.w3.org/2000/svg"
  width="28"
  height="28"
  viewBox="0 0 28 28"
  fill="none"
>
  <g clip-path="url(#clip0_57_217)">
    <path
      d="M17.0917 5.81003L11.2583 3.76837C10.7683 3.59337 10.2317 3.59337 9.74167 3.7567L5.08667 5.32003C4.14167 5.6467 3.5 6.53337 3.5 7.5367V21.3617C3.5 23.0067 5.145 24.1267 6.67333 23.5317L10.0917 22.2017C10.3483 22.0967 10.64 22.0967 10.8967 22.19L16.73 24.2317C17.22 24.4067 17.7567 24.4067 18.2467 24.2434L22.9017 22.68C23.8467 22.365 24.4883 21.4667 24.4883 20.4634V6.63837C24.4883 4.99337 22.8433 3.87337 21.315 4.46837L17.8967 5.79837C17.64 5.8917 17.36 5.90337 17.0917 5.81003ZM17.5 22.0384L10.5 19.5767V5.9617L17.5 8.42337V22.0384Z"
      fill="#F99E1E"
    />
  </g>
  <defs>
    <clipPath id="clip0_57_217">
      <rect width="28" height="28" fill="white" />
    </clipPath>
  </defs>
</svg>