<svg
  xmlns="http://www.w3.org/2000/svg"
  width="86"
  height="6"
  viewBox="0 0 86 6"
  fill="none"
>
  <path
    d="M0.333333 3C0.333333 4.47276 1.52724 5.66667 3 5.66667C4.47276 5.66667 5.66667 4.47276 5.66667 3C5.66667 1.52724 4.47276 0.333333 3 0.333333C1.52724 0.333333 0.333333 1.52724 0.333333 3ZM80.3333 3C80.3333 4.47276 81.5272 5.66667 83 5.66667C84.4728 5.66667 85.6667 4.47276 85.6667 3C85.6667 1.52724 84.4728 0.333333 83 0.333333C81.5272 0.333333 80.3333 1.52724 80.3333 3ZM3 3.5H4V2.5H3V3.5ZM6 3.5H8V2.5H6V3.5ZM10 3.5H12V2.5H10V3.5ZM14 3.5H16V2.5H14V3.5ZM18 3.5H20V2.5H18V3.5ZM22 3.5H24V2.5H22V3.5ZM26 3.5H28V2.5H26V3.5ZM30 3.5H32V2.5H30V3.5ZM34 3.5H36V2.5H34V3.5ZM38 3.5H40V2.5H38V3.5ZM42 3.5H44V2.5H42V3.5ZM46 3.5H48V2.5H46V3.5ZM50 3.5H52V2.5H50V3.5ZM54 3.5H56V2.5H54V3.5ZM58 3.5H60V2.5H58V3.5ZM62 3.5H64V2.5H62V3.5ZM66 3.5H68V2.5H66V3.5ZM70 3.5H72V2.5H70V3.5ZM74 3.5H76V2.5H74V3.5ZM78 3.5H80V2.5H78V3.5ZM82 3.5H83V2.5H82V3.5Z"
    fill="#F99E1E"
  />
</svg>